<mxfile host="app.diagrams.net" modified="2023-09-20T05:46:32.667Z" agent="Mozilla/5.0 (Windows NT 10.0; Win64; x64) AppleWebKit/537.36 (KHTML, like Gecko) Chrome/116.0.0.0 Safari/537.36" etag="nVeOj7pzK4CJ9oCEFIeX" version="21.7.5" type="device">
  <diagram name="Page-1" id="WdfEwW_wiIB1Sr5ALR1Y">
    <mxGraphModel dx="836" dy="526" grid="1" gridSize="10" guides="1" tooltips="1" connect="1" arrows="1" fold="1" page="1" pageScale="1" pageWidth="850" pageHeight="1100" math="0" shadow="0">
      <root>
        <mxCell id="0" />
        <mxCell id="1" parent="0" />
        <mxCell id="tXX5Dl9M7kj_Wj1Wl5B1-5" value="u_id" style="rounded=0;whiteSpace=wrap;html=1;" parent="1" vertex="1">
          <mxGeometry x="35" y="50" width="120" height="30" as="geometry" />
        </mxCell>
        <mxCell id="tXX5Dl9M7kj_Wj1Wl5B1-6" value="USER" style="text;html=1;align=center;verticalAlign=middle;resizable=0;points=[];autosize=1;strokeColor=none;fillColor=none;" parent="1" vertex="1">
          <mxGeometry x="30" y="20" width="60" height="30" as="geometry" />
        </mxCell>
        <mxCell id="tXX5Dl9M7kj_Wj1Wl5B1-7" value="username" style="rounded=0;whiteSpace=wrap;html=1;" parent="1" vertex="1">
          <mxGeometry x="155" y="50" width="120" height="30" as="geometry" />
        </mxCell>
        <mxCell id="tXX5Dl9M7kj_Wj1Wl5B1-8" value="email" style="rounded=0;whiteSpace=wrap;html=1;" parent="1" vertex="1">
          <mxGeometry x="275" y="50" width="120" height="30" as="geometry" />
        </mxCell>
        <mxCell id="tXX5Dl9M7kj_Wj1Wl5B1-9" value="password" style="rounded=0;whiteSpace=wrap;html=1;" parent="1" vertex="1">
          <mxGeometry x="395" y="50" width="120" height="30" as="geometry" />
        </mxCell>
        <mxCell id="tXX5Dl9M7kj_Wj1Wl5B1-10" value="clearense" style="rounded=0;whiteSpace=wrap;html=1;" parent="1" vertex="1">
          <mxGeometry x="515" y="50" width="120" height="30" as="geometry" />
        </mxCell>
        <mxCell id="tXX5Dl9M7kj_Wj1Wl5B1-11" value="contact" style="rounded=0;whiteSpace=wrap;html=1;" parent="1" vertex="1">
          <mxGeometry x="635" y="50" width="120" height="30" as="geometry" />
        </mxCell>
        <mxCell id="tXX5Dl9M7kj_Wj1Wl5B1-12" value="c_id" style="rounded=0;whiteSpace=wrap;html=1;" parent="1" vertex="1">
          <mxGeometry x="35" y="160" width="120" height="30" as="geometry" />
        </mxCell>
        <mxCell id="tXX5Dl9M7kj_Wj1Wl5B1-13" value="c_code" style="rounded=0;whiteSpace=wrap;html=1;" parent="1" vertex="1">
          <mxGeometry x="155" y="160" width="120" height="30" as="geometry" />
        </mxCell>
        <mxCell id="tXX5Dl9M7kj_Wj1Wl5B1-15" value="starting_date" style="rounded=0;whiteSpace=wrap;html=1;" parent="1" vertex="1">
          <mxGeometry x="275" y="160" width="120" height="30" as="geometry" />
        </mxCell>
        <mxCell id="tXX5Dl9M7kj_Wj1Wl5B1-16" value="display_info" style="rounded=0;whiteSpace=wrap;html=1;" parent="1" vertex="1">
          <mxGeometry x="395" y="160" width="120" height="30" as="geometry" />
        </mxCell>
        <mxCell id="tXX5Dl9M7kj_Wj1Wl5B1-17" value="coordinator_id" style="rounded=0;whiteSpace=wrap;html=1;" parent="1" vertex="1">
          <mxGeometry x="515" y="160" width="120" height="30" as="geometry" />
        </mxCell>
        <mxCell id="tXX5Dl9M7kj_Wj1Wl5B1-18" value="COURSE_OFFERING" style="text;html=1;align=center;verticalAlign=middle;resizable=0;points=[];autosize=1;strokeColor=none;fillColor=none;" parent="1" vertex="1">
          <mxGeometry x="34" y="130" width="140" height="30" as="geometry" />
        </mxCell>
        <mxCell id="tXX5Dl9M7kj_Wj1Wl5B1-19" value="" style="endArrow=none;dashed=1;html=1;rounded=0;" parent="1" edge="1">
          <mxGeometry width="50" height="50" relative="1" as="geometry">
            <mxPoint x="546" y="183" as="sourcePoint" />
            <mxPoint x="612" y="183" as="targetPoint" />
          </mxGeometry>
        </mxCell>
        <mxCell id="tXX5Dl9M7kj_Wj1Wl5B1-20" value="" style="endArrow=none;html=1;rounded=0;" parent="1" edge="1">
          <mxGeometry width="50" height="50" relative="1" as="geometry">
            <mxPoint x="60" y="74" as="sourcePoint" />
            <mxPoint x="130" y="74" as="targetPoint" />
          </mxGeometry>
        </mxCell>
        <mxCell id="tXX5Dl9M7kj_Wj1Wl5B1-21" value="" style="endArrow=none;html=1;rounded=0;" parent="1" edge="1">
          <mxGeometry width="50" height="50" relative="1" as="geometry">
            <mxPoint x="179" y="184" as="sourcePoint" />
            <mxPoint x="249" y="184" as="targetPoint" />
          </mxGeometry>
        </mxCell>
        <mxCell id="tXX5Dl9M7kj_Wj1Wl5B1-22" value="e_id" style="rounded=0;whiteSpace=wrap;html=1;" parent="1" vertex="1">
          <mxGeometry x="40" y="571" width="120" height="30" as="geometry" />
        </mxCell>
        <mxCell id="tXX5Dl9M7kj_Wj1Wl5B1-23" value="e_name" style="rounded=0;whiteSpace=wrap;html=1;" parent="1" vertex="1">
          <mxGeometry x="160" y="571" width="120" height="30" as="geometry" />
        </mxCell>
        <mxCell id="tXX5Dl9M7kj_Wj1Wl5B1-24" value="e_date" style="rounded=0;whiteSpace=wrap;html=1;" parent="1" vertex="1">
          <mxGeometry x="280" y="571" width="120" height="30" as="geometry" />
        </mxCell>
        <mxCell id="tXX5Dl9M7kj_Wj1Wl5B1-25" value="display_from" style="rounded=0;whiteSpace=wrap;html=1;" parent="1" vertex="1">
          <mxGeometry x="740" y="571" width="120" height="30" as="geometry" />
        </mxCell>
        <mxCell id="tXX5Dl9M7kj_Wj1Wl5B1-26" value="display_to" style="rounded=0;whiteSpace=wrap;html=1;" parent="1" vertex="1">
          <mxGeometry x="860" y="571" width="120" height="30" as="geometry" />
        </mxCell>
        <mxCell id="tXX5Dl9M7kj_Wj1Wl5B1-27" value="added_by" style="rounded=0;whiteSpace=wrap;html=1;" parent="1" vertex="1">
          <mxGeometry x="980" y="571" width="120" height="30" as="geometry" />
        </mxCell>
        <mxCell id="tXX5Dl9M7kj_Wj1Wl5B1-28" value="UPCOMING_EVENTS" style="text;html=1;align=center;verticalAlign=middle;resizable=0;points=[];autosize=1;strokeColor=none;fillColor=none;" parent="1" vertex="1">
          <mxGeometry x="30" y="541" width="140" height="30" as="geometry" />
        </mxCell>
        <mxCell id="tXX5Dl9M7kj_Wj1Wl5B1-29" value="" style="endArrow=none;dashed=1;html=1;rounded=0;" parent="1" edge="1">
          <mxGeometry width="50" height="50" relative="1" as="geometry">
            <mxPoint x="1007" y="594" as="sourcePoint" />
            <mxPoint x="1073" y="594" as="targetPoint" />
          </mxGeometry>
        </mxCell>
        <mxCell id="tXX5Dl9M7kj_Wj1Wl5B1-30" value="" style="endArrow=none;html=1;rounded=0;" parent="1" edge="1">
          <mxGeometry width="50" height="50" relative="1" as="geometry">
            <mxPoint x="70" y="595" as="sourcePoint" />
            <mxPoint x="140" y="595" as="targetPoint" />
          </mxGeometry>
        </mxCell>
        <mxCell id="tXX5Dl9M7kj_Wj1Wl5B1-31" value="e_time" style="rounded=0;whiteSpace=wrap;html=1;" parent="1" vertex="1">
          <mxGeometry x="400" y="571" width="120" height="30" as="geometry" />
        </mxCell>
        <mxCell id="tXX5Dl9M7kj_Wj1Wl5B1-32" value="e_venue" style="rounded=0;whiteSpace=wrap;html=1;" parent="1" vertex="1">
          <mxGeometry x="520" y="571" width="120" height="30" as="geometry" />
        </mxCell>
        <mxCell id="tXX5Dl9M7kj_Wj1Wl5B1-33" value="" style="endArrow=none;dashed=1;html=1;rounded=0;" parent="1" edge="1">
          <mxGeometry width="50" height="50" relative="1" as="geometry">
            <mxPoint x="71" y="183" as="sourcePoint" />
            <mxPoint x="137" y="183" as="targetPoint" />
          </mxGeometry>
        </mxCell>
        <mxCell id="tXX5Dl9M7kj_Wj1Wl5B1-34" value="c_id" style="rounded=0;whiteSpace=wrap;html=1;" parent="1" vertex="1">
          <mxGeometry x="41" y="270" width="120" height="30" as="geometry" />
        </mxCell>
        <mxCell id="tXX5Dl9M7kj_Wj1Wl5B1-35" value="c_name" style="rounded=0;whiteSpace=wrap;html=1;" parent="1" vertex="1">
          <mxGeometry x="161" y="270" width="120" height="30" as="geometry" />
        </mxCell>
        <mxCell id="tXX5Dl9M7kj_Wj1Wl5B1-39" value="COURSE" style="text;html=1;align=center;verticalAlign=middle;resizable=0;points=[];autosize=1;strokeColor=none;fillColor=none;" parent="1" vertex="1">
          <mxGeometry x="41" y="240" width="70" height="30" as="geometry" />
        </mxCell>
        <mxCell id="tXX5Dl9M7kj_Wj1Wl5B1-41" value="" style="endArrow=none;html=1;rounded=0;" parent="1" edge="1">
          <mxGeometry width="50" height="50" relative="1" as="geometry">
            <mxPoint x="71" y="294" as="sourcePoint" />
            <mxPoint x="141" y="294" as="targetPoint" />
          </mxGeometry>
        </mxCell>
        <mxCell id="tXX5Dl9M7kj_Wj1Wl5B1-44" value="details" style="rounded=0;whiteSpace=wrap;html=1;" parent="1" vertex="1">
          <mxGeometry x="281" y="270" width="120" height="30" as="geometry" />
        </mxCell>
        <mxCell id="tXX5Dl9M7kj_Wj1Wl5B1-45" value="f_id" style="rounded=0;whiteSpace=wrap;html=1;" parent="1" vertex="1">
          <mxGeometry x="41" y="358" width="120" height="30" as="geometry" />
        </mxCell>
        <mxCell id="tXX5Dl9M7kj_Wj1Wl5B1-46" value="f_name" style="rounded=0;whiteSpace=wrap;html=1;" parent="1" vertex="1">
          <mxGeometry x="161" y="358" width="120" height="30" as="geometry" />
        </mxCell>
        <mxCell id="tXX5Dl9M7kj_Wj1Wl5B1-47" value="FACILITY" style="text;html=1;align=center;verticalAlign=middle;resizable=0;points=[];autosize=1;strokeColor=none;fillColor=none;" parent="1" vertex="1">
          <mxGeometry x="36" y="328" width="80" height="30" as="geometry" />
        </mxCell>
        <mxCell id="tXX5Dl9M7kj_Wj1Wl5B1-48" value="" style="endArrow=none;html=1;rounded=0;" parent="1" edge="1">
          <mxGeometry width="50" height="50" relative="1" as="geometry">
            <mxPoint x="71" y="382" as="sourcePoint" />
            <mxPoint x="141" y="382" as="targetPoint" />
          </mxGeometry>
        </mxCell>
        <mxCell id="tXX5Dl9M7kj_Wj1Wl5B1-50" value="c_code" style="rounded=0;whiteSpace=wrap;html=1;" parent="1" vertex="1">
          <mxGeometry x="41" y="458" width="120" height="30" as="geometry" />
        </mxCell>
        <mxCell id="tXX5Dl9M7kj_Wj1Wl5B1-51" value="f_id" style="rounded=0;whiteSpace=wrap;html=1;" parent="1" vertex="1">
          <mxGeometry x="161" y="458" width="120" height="30" as="geometry" />
        </mxCell>
        <mxCell id="tXX5Dl9M7kj_Wj1Wl5B1-52" value="TIMETABLE" style="text;html=1;align=center;verticalAlign=middle;resizable=0;points=[];autosize=1;strokeColor=none;fillColor=none;" parent="1" vertex="1">
          <mxGeometry x="31" y="428" width="90" height="30" as="geometry" />
        </mxCell>
        <mxCell id="tXX5Dl9M7kj_Wj1Wl5B1-53" value="" style="endArrow=none;html=1;rounded=0;" parent="1" edge="1">
          <mxGeometry width="50" height="50" relative="1" as="geometry">
            <mxPoint x="71" y="482" as="sourcePoint" />
            <mxPoint x="141" y="482" as="targetPoint" />
          </mxGeometry>
        </mxCell>
        <mxCell id="tXX5Dl9M7kj_Wj1Wl5B1-54" value="lec_day" style="rounded=0;whiteSpace=wrap;html=1;" parent="1" vertex="1">
          <mxGeometry x="281" y="458" width="120" height="30" as="geometry" />
        </mxCell>
        <mxCell id="tXX5Dl9M7kj_Wj1Wl5B1-55" value="lec_time" style="rounded=0;whiteSpace=wrap;html=1;" parent="1" vertex="1">
          <mxGeometry x="400" y="458" width="120" height="30" as="geometry" />
        </mxCell>
        <mxCell id="tXX5Dl9M7kj_Wj1Wl5B1-56" value="a_id" style="rounded=0;whiteSpace=wrap;html=1;" parent="1" vertex="1">
          <mxGeometry x="41" y="700" width="120" height="30" as="geometry" />
        </mxCell>
        <mxCell id="tXX5Dl9M7kj_Wj1Wl5B1-57" value="a_name" style="rounded=0;whiteSpace=wrap;html=1;" parent="1" vertex="1">
          <mxGeometry x="161" y="700" width="120" height="30" as="geometry" />
        </mxCell>
        <mxCell id="tXX5Dl9M7kj_Wj1Wl5B1-59" value="display_from" style="rounded=0;whiteSpace=wrap;html=1;" parent="1" vertex="1">
          <mxGeometry x="390" y="700" width="120" height="30" as="geometry" />
        </mxCell>
        <mxCell id="tXX5Dl9M7kj_Wj1Wl5B1-60" value="display_to" style="rounded=0;whiteSpace=wrap;html=1;" parent="1" vertex="1">
          <mxGeometry x="510" y="700" width="120" height="30" as="geometry" />
        </mxCell>
        <mxCell id="tXX5Dl9M7kj_Wj1Wl5B1-61" value="added_by" style="rounded=0;whiteSpace=wrap;html=1;" parent="1" vertex="1">
          <mxGeometry x="630" y="700" width="120" height="30" as="geometry" />
        </mxCell>
        <mxCell id="tXX5Dl9M7kj_Wj1Wl5B1-62" value="ACHIVEMENTS" style="text;html=1;align=center;verticalAlign=middle;resizable=0;points=[];autosize=1;strokeColor=none;fillColor=none;" parent="1" vertex="1">
          <mxGeometry x="46" y="670" width="110" height="30" as="geometry" />
        </mxCell>
        <mxCell id="tXX5Dl9M7kj_Wj1Wl5B1-63" value="" style="endArrow=none;dashed=1;html=1;rounded=0;" parent="1" edge="1">
          <mxGeometry width="50" height="50" relative="1" as="geometry">
            <mxPoint x="657" y="723" as="sourcePoint" />
            <mxPoint x="723" y="723" as="targetPoint" />
          </mxGeometry>
        </mxCell>
        <mxCell id="tXX5Dl9M7kj_Wj1Wl5B1-64" value="" style="endArrow=none;html=1;rounded=0;" parent="1" edge="1">
          <mxGeometry width="50" height="50" relative="1" as="geometry">
            <mxPoint x="71" y="724" as="sourcePoint" />
            <mxPoint x="141" y="724" as="targetPoint" />
          </mxGeometry>
        </mxCell>
        <mxCell id="tXX5Dl9M7kj_Wj1Wl5B1-67" value="a_img" style="rounded=0;whiteSpace=wrap;html=1;" parent="1" vertex="1">
          <mxGeometry x="281" y="700" width="120" height="30" as="geometry" />
        </mxCell>
        <mxCell id="tXX5Dl9M7kj_Wj1Wl5B1-68" value="e_img" style="rounded=0;whiteSpace=wrap;html=1;" parent="1" vertex="1">
          <mxGeometry x="619" y="571" width="120" height="30" as="geometry" />
        </mxCell>
        <mxCell id="tXX5Dl9M7kj_Wj1Wl5B1-69" value="p_id" style="rounded=0;whiteSpace=wrap;html=1;" parent="1" vertex="1">
          <mxGeometry x="41" y="800" width="120" height="30" as="geometry" />
        </mxCell>
        <mxCell id="tXX5Dl9M7kj_Wj1Wl5B1-70" value="p_name" style="rounded=0;whiteSpace=wrap;html=1;" parent="1" vertex="1">
          <mxGeometry x="161" y="800" width="120" height="30" as="geometry" />
        </mxCell>
        <mxCell id="tXX5Dl9M7kj_Wj1Wl5B1-71" value="display_from" style="rounded=0;whiteSpace=wrap;html=1;" parent="1" vertex="1">
          <mxGeometry x="390" y="800" width="120" height="30" as="geometry" />
        </mxCell>
        <mxCell id="tXX5Dl9M7kj_Wj1Wl5B1-72" value="display_to" style="rounded=0;whiteSpace=wrap;html=1;" parent="1" vertex="1">
          <mxGeometry x="510" y="800" width="120" height="30" as="geometry" />
        </mxCell>
        <mxCell id="tXX5Dl9M7kj_Wj1Wl5B1-73" value="added_by" style="rounded=0;whiteSpace=wrap;html=1;" parent="1" vertex="1">
          <mxGeometry x="630" y="800" width="120" height="30" as="geometry" />
        </mxCell>
        <mxCell id="tXX5Dl9M7kj_Wj1Wl5B1-74" value="PREVIOUS_EVENT" style="text;html=1;align=center;verticalAlign=middle;resizable=0;points=[];autosize=1;strokeColor=none;fillColor=none;" parent="1" vertex="1">
          <mxGeometry x="36" y="770" width="130" height="30" as="geometry" />
        </mxCell>
        <mxCell id="tXX5Dl9M7kj_Wj1Wl5B1-75" value="" style="endArrow=none;dashed=1;html=1;rounded=0;" parent="1" edge="1">
          <mxGeometry width="50" height="50" relative="1" as="geometry">
            <mxPoint x="657" y="823" as="sourcePoint" />
            <mxPoint x="723" y="823" as="targetPoint" />
          </mxGeometry>
        </mxCell>
        <mxCell id="tXX5Dl9M7kj_Wj1Wl5B1-76" value="" style="endArrow=none;html=1;rounded=0;" parent="1" edge="1">
          <mxGeometry width="50" height="50" relative="1" as="geometry">
            <mxPoint x="71" y="824" as="sourcePoint" />
            <mxPoint x="141" y="824" as="targetPoint" />
          </mxGeometry>
        </mxCell>
        <mxCell id="tXX5Dl9M7kj_Wj1Wl5B1-77" value="p_img" style="rounded=0;whiteSpace=wrap;html=1;" parent="1" vertex="1">
          <mxGeometry x="281" y="800" width="120" height="30" as="geometry" />
        </mxCell>
      </root>
    </mxGraphModel>
  </diagram>
</mxfile>
